<?xml version="1.0" encoding="UTF-8" standalone="no"?><!DOCTYPE svg PUBLIC "-//W3C//DTD SVG 1.1//EN" "http://www.w3.org/Graphics/SVG/1.1/DTD/svg11.dtd"><svg width="100%" height="100%" viewBox="0 0 28 28" version="1.1" xmlns="http://www.w3.org/2000/svg" xmlns:xlink="http://www.w3.org/1999/xlink" xml:space="preserve" xmlns:serif="http://www.serif.com/" style="fill-rule:evenodd;clip-rule:evenodd;stroke-linejoin:round;stroke-miterlimit:1.41421;"><g><clipPath id="_clip1"><path d="M22.64,14.205c0,-0.638 -0.058,-1.252 -0.164,-1.841l-8.476,0l0,3.481l4.843,0c-0.208,1.125 -0.843,2.079 -1.796,2.717l0,2.258l2.909,0c1.702,-1.567 2.684,-3.874 2.684,-6.615Z"/></clipPath><g clip-path="url(#_clip1)"><rect x="9" y="7.364" width="18.64" height="18.456" style="fill:#4385f4;fill-rule:nonzero;"/></g><clipPath id="_clip2"><path d="M14,23c2.43,0 4.467,-0.805 5.956,-2.18l-2.909,-2.258c-0.806,0.54 -1.837,0.859 -3.047,0.859c-2.345,0 -4.329,-1.583 -5.036,-3.711l-3.007,0l0,2.332c1.481,2.942 4.524,4.958 8.043,4.958Z"/></clipPath><g clip-path="url(#_clip2)"><rect x="0.957" y="10.71" width="23.999" height="17.29" style="fill:#36a755;fill-rule:nonzero;"/></g><clipPath id="_clip3"><path d="M8.964,15.71c-0.18,-0.54 -0.283,-1.116 -0.283,-1.71c0,-0.593 0.103,-1.17 0.283,-1.71l0,-2.331l-3.007,0c-0.61,1.215 -0.957,2.589 -0.957,4.041c0,1.453 0.347,2.827 0.957,4.042l3.007,-2.332Z"/></clipPath><g clip-path="url(#_clip3)"><rect x="0" y="4.959" width="13.964" height="18.083" style="fill:#fbbb00;fill-rule:nonzero;"/></g><clipPath id="_clip4"><path d="M14,8.58c1.321,0 2.507,0.454 3.44,1.346l2.581,-2.581c-1.558,-1.453 -3.596,-2.345 -6.021,-2.345c-3.519,0 -6.562,2.017 -8.043,4.959l3.007,2.331c0.707,-2.127 2.691,-3.71 5.036,-3.71Z"/></clipPath><g clip-path="url(#_clip4)"><rect x="0.957" y="0" width="24.064" height="17.29" style="fill:#ea4539;fill-rule:nonzero;"/></g></g></svg>